<?xml version="1.0" encoding="UTF-8" standalone="no"?>
<svg
   xmlns:dc="http://purl.org/dc/elements/1.1/"
   xmlns:cc="http://creativecommons.org/ns#"
   xmlns:rdf="http://www.w3.org/1999/02/22-rdf-syntax-ns#"
   xmlns:svg="http://www.w3.org/2000/svg"
   xmlns="http://www.w3.org/2000/svg"
   xmlns:xlink="http://www.w3.org/1999/xlink"
   xmlns:sodipodi="http://sodipodi.sourceforge.net/DTD/sodipodi-0.dtd"
   xmlns:inkscape="http://www.inkscape.org/namespaces/inkscape"
   sodipodi:docname="design.svg"
   inkscape:version="1.0.1 (1.0.1+r73)"
   id="svg8"
   version="1.1"
   viewBox="0 0 211.66666 211.66667"
   height="800"
   width="800">
  <defs
     id="defs2">
    <color-profile
       xlink:href="../../../.local/share/icc/Print/USSheetfedCoated.icc"
       id="color-profile55"
       name="U.S.-Sheetfed-Coated-v2" />
    <color-profile
       xlink:href="file:///usr/share/color/icc/colord/FOGRA29L_uncoated.icc"
       name="FOGRA29L-Uncoated"
       id="color-profile57" />
    <marker
       inkscape:stockid="DotS"
       orient="auto"
       refY="0"
       refX="0"
       id="marker1744"
       style="overflow:visible"
       inkscape:isstock="true">
      <path
         id="path1742"
         d="m -2.5,-1 c 0,2.76 -2.24,5 -5,5 -2.76,0 -5,-2.24 -5,-5 0,-2.76 2.24,-5 5,-5 2.76,0 5,2.24 5,5 z"
         style="fill:#0a2463;fill-opacity:1;fill-rule:evenodd;stroke:#0a2463;stroke-width:1pt;stroke-opacity:1"
         transform="matrix(0.2,0,0,0.2,1.48,0.2)" />
    </marker>
  </defs>
  <sodipodi:namedview
     inkscape:document-rotation="0"
     inkscape:window-maximized="1"
     inkscape:window-y="0"
     inkscape:window-x="0"
     inkscape:window-height="775"
     inkscape:window-width="1280"
     inkscape:showpageshadow="false"
     borderlayer="true"
     units="px"
     showgrid="false"
     inkscape:current-layer="layer1"
     inkscape:document-units="px"
     inkscape:cy="479.41211"
     inkscape:cx="313.43332"
     inkscape:zoom="0.35"
     inkscape:pageshadow="2"
     inkscape:pageopacity="0.0"
     borderopacity="1.0"
     bordercolor="#666666"
     pagecolor="#ffffff"
     id="base" />
  <metadata
     id="metadata5">
    <rdf:RDF>
      <cc:Work
         rdf:about="">
        <dc:format>image/svg+xml</dc:format>
        <dc:type
           rdf:resource="http://purl.org/dc/dcmitype/StillImage" />
        <dc:title></dc:title>
        <dc:creator>
          <cc:Agent>
            <dc:title>Jonathan Doré</dc:title>
          </cc:Agent>
        </dc:creator>
      </cc:Work>
    </rdf:RDF>
  </metadata>
  <g
     transform="translate(0,20.500008)"
     id="layer1"
     inkscape:groupmode="layer"
     inkscape:label="Layer 1">
    <g
       id="g251"
       transform="translate(-1.1005859e-5)">
      <circle
         r="105.70104"
         cy="85.333328"
         cx="105.83334"
         id="path13"
         style="fill:#57d0fc;fill-opacity:1;stroke-width:1.32292;stroke-linecap:round;stroke-linejoin:round;stop-color:#000000" />
      <g
         style="stroke:#0a2463;stroke-width:1.08036;stroke-opacity:1"
         transform="matrix(0.92562021,0,0,0.92562021,9.9885263,6.3470725)"
         id="g1118">
        <g
           id="g958"
           transform="matrix(-0.70710678,0.70710678,0.64789082,0.64789082,307.9834,-211.65835)"
           style="stroke:#0a2463;stroke-width:1.12865;stroke-opacity:1">
          <g
             transform="translate(0.06563106,-2.5268907)"
             id="g915"
             style="stroke:#0a2463;stroke-width:1.12865;stroke-opacity:1" />
          <g
             transform="translate(-0.10483307,-114.83657)"
             id="g939"
             style="stroke:#0a2463;stroke-width:1.12865;stroke-opacity:1">
            <path
               id="path937"
               style="fill:#fce58c;fill-opacity:1;stroke:#0a2463;stroke-width:4.47932;stroke-linecap:round;stroke-linejoin:round;stroke-miterlimit:4;stroke-dasharray:none;stroke-opacity:1"
               d="m 374.63229,133.78506 h -9.32452 m 9.60377,-9.42558 h -20.57096 m 20.57096,18.85117 h -20.57096 m 20.46217,102.88409 h -10.5903 M 375.082,236.66916 H 354.51104 M 375.082,255.52033 H 354.51104 M 334.2645,103.33253 h 37.57367 c 2.08144,0 3.75712,1.67567 3.75712,3.75711 V 268.9687 c 0,2.08144 -1.67568,3.75711 -3.75712,3.75711 H 334.2645 c -2.08144,0 -3.75711,-1.67567 -3.75711,-3.75711 V 107.08964 c 0,-2.08144 1.67567,-3.75711 3.75711,-3.75711 z" />
          </g>
        </g>
        <g
           id="g1092"
           transform="matrix(1.093284,0,0,1.0932843,-12.460065,-6.2312742)"
           style="stroke:#0a2463;stroke-width:0.988182;stroke-opacity:1">
          <g
             style="stroke:#0a2463;stroke-width:1.20556;stroke-opacity:1"
             transform="matrix(-0.57891872,-0.57978387,0.57941821,-0.58028336,269.74392,348.16399)"
             id="g1027" />
          <path
             id="path1061"
             style="font-variation-settings:normal;opacity:1;vector-effect:none;fill:#fce58c;fill-opacity:1;stroke:#0a2463;stroke-width:3.92182;stroke-linecap:round;stroke-linejoin:round;stroke-miterlimit:4;stroke-dasharray:none;stroke-dashoffset:0;stroke-opacity:1;stop-color:#000000;stop-opacity:1"
             d="m 51.493496,114.9496 25.449093,25.48682 M 138.1894,29.124135 162.8688,53.80354 M 129.49802,37.633268 154.22286,62.35811 m -98.43577,82.33206 -8.420325,-8.43291 M 151.30652,20.452013 c -3.28209,-0.06737 -6.46549,1.01465 -9.10642,3.655591 L 51.493496,114.9496 44.885112,147.05461 76.942588,140.43642 167.6492,49.594938 C 178.57316,38.671016 164.18245,20.716286 151.30652,20.452013 Z"
             sodipodi:nodetypes="ccccccccscccccs" />
        </g>
      </g>
    </g>
  </g>
</svg>
